<svg width="600" height="800" viewBox="0 0 600 800" fill="none" xmlns="http://www.w3.org/2000/svg">
<path d="M583.647 101.979C592.653 99.861 599.364 91.7937 599.364 82.1421V20.3978C599.364 9.13483 590.229 -8.48699e-06 578.966 -8.48699e-06H21.0374C9.77439 -8.48699e-06 0.639557 9.13483 0.639557 20.3978V82.1455C0.639557 91.7971 7.35045 99.8644 16.3561 101.982C22.5162 211.838 79.569 312.515 171.658 374.212L210.156 400.002L171.658 425.791C79.5656 487.485 22.5128 588.165 16.3561 698.021C7.35045 700.139 0.639557 708.206 0.639557 717.858V779.606C0.639557 790.869 9.77439 800.003 21.0374 800.003H578.966C590.229 800.003 599.364 790.869 599.364 779.606V717.858C599.364 708.206 592.653 700.139 583.647 698.021C577.487 588.165 520.434 487.488 428.342 425.791L389.844 400.002L428.342 374.212C520.434 312.515 577.487 211.835 583.647 101.979ZM41.4352 40.7957H558.568V61.7477H41.4352V40.7957ZM558.568 759.204H41.4352V738.252H558.568V759.204ZM341.845 383.055C336.191 386.842 332.798 393.196 332.798 400.002C332.798 406.808 336.191 413.162 341.845 416.949L405.639 459.686C486.244 513.682 536.491 601.468 542.756 697.46H57.247C63.5125 601.471 113.759 513.686 194.365 459.686L258.159 416.949C263.813 413.162 267.205 406.808 267.205 400.002C267.205 393.196 263.813 386.842 258.159 383.055L194.365 340.318C113.759 286.318 63.5125 198.532 57.247 102.543H542.756C536.491 198.536 486.244 286.318 405.639 340.318L341.845 383.055Z" fill="#3361FF"/>
<path d="M353.196 281.014H246.804C238.349 281.014 230.768 286.233 227.749 294.13C224.73 302.031 226.899 310.975 233.202 316.612L286.396 364.207C290.269 367.671 295.133 369.402 299.995 369.402C304.856 369.402 309.725 367.671 313.593 364.207L366.788 316.612C373.091 310.972 375.26 302.027 372.241 294.13C369.232 286.233 361.651 281.014 353.196 281.014Z" fill="#3361FF"/>
<path d="M299.165 477.925L247.43 511.156C202.194 541.461 175.044 592.326 175.044 646.775H435.154C435.154 592.326 408.005 541.461 362.769 511.156L311.034 477.925C307.382 475.735 302.82 475.735 299.165 477.925Z" fill="#3361FF"/>
</svg>
