<svg width="24" height="25" viewBox="0 0 24 25" fill="none" xmlns="http://www.w3.org/2000/svg">
<path opacity="0.3" d="M0 2.66014C-9.2714e-08 0.539067 2.82667 -0.72609 4.93695 0.4505L22.5861 10.2904C24.4713 11.3415 24.4713 13.6584 22.5859 14.7097L4.93695 24.5495C2.82667 25.7261 9.52943e-07 24.4609 8.60228e-07 22.3399L4.30115e-07 12.5L0 2.66014Z" fill="#6CCAF2"/>
<path d="M1.00111 12.2826C1.00111 15.5669 3.66354 18.2293 6.94782 18.2293C10.2321 18.2293 12.8945 15.5669 12.8945 12.2826C12.8945 8.99831 10.2321 6.33588 6.94782 6.33588C3.66354 6.33588 1.00111 8.99831 1.00111 12.2826Z" fill="#139ED9"/>
<path d="M10.6972 6.53921C7.52481 7.38925 5.64218 10.65 6.49222 13.8224C7.34225 16.9948 10.6031 18.8774 13.7754 18.0274C16.9478 17.1773 18.8304 13.9165 17.9804 10.7442C17.1303 7.5718 13.8695 5.68918 10.6972 6.53921Z" fill="#E09C19"/>
<path d="M5.17522 8.85315C5.21303 8.73677 5.37768 8.73677 5.41549 8.85315L5.99018 10.6219C6.00709 10.6739 6.05559 10.7091 6.11032 10.7091H7.97006C8.09243 10.7091 8.14331 10.8657 8.04431 10.9377L6.53975 12.0308C6.49547 12.063 6.47695 12.12 6.49386 12.172L7.06855 13.9407C7.10637 14.0571 6.97316 14.1539 6.87417 14.082L5.3696 12.9888C5.32533 12.9567 5.26538 12.9567 5.2211 12.9888L3.71654 14.082C3.61754 14.1539 3.48434 14.0571 3.52215 13.9407L4.09685 12.172C4.11376 12.12 4.09523 12.063 4.05096 12.0308L2.54639 10.9377C2.4474 10.8657 2.49827 10.7091 2.62064 10.7091H4.48039C4.53511 10.7091 4.58361 10.6739 4.60052 10.6219L5.17522 8.85315Z" fill="#E09C19"/>
<path d="M7.30142 8.91475C7.34554 8.77898 7.53763 8.77898 7.58174 8.91475L8.25222 10.9783C8.27195 11.039 8.32853 11.0801 8.39238 11.0801H10.5621C10.7048 11.0801 10.7642 11.2628 10.6487 11.3467L8.89338 12.622C8.84172 12.6596 8.82011 12.7261 8.83984 12.7868L9.51032 14.8503C9.55443 14.9861 9.39903 15.099 9.28353 15.0151L7.52821 13.7397C7.47655 13.7022 7.40661 13.7022 7.35496 13.7397L5.59963 15.0151C5.48414 15.099 5.32874 14.9861 5.37285 14.8503L6.04333 12.7868C6.06306 12.7261 6.04144 12.6596 5.98979 12.622L4.23446 11.3467C4.11897 11.2628 4.17833 11.0801 4.32109 11.0801H6.49079C6.55464 11.0801 6.61122 11.039 6.63095 10.9783L7.30142 8.91475Z" fill="#139ED9"/>
</svg>
