<svg width="61" height="61" viewBox="0 0 61 61" fill="none" xmlns="http://www.w3.org/2000/svg">
<path fill-rule="evenodd" clip-rule="evenodd" d="M30.5 45.5C38.7842 45.5 45.5 38.7842 45.5 30.5C45.5 22.2157 38.7842 15.5 30.5 15.5C22.2157 15.5 15.5 22.2157 15.5 30.5C15.5 38.7842 22.2157 45.5 30.5 45.5ZM30.5 40.5C36.0228 40.5 40.5 36.0228 40.5 30.5C40.5 24.9771 36.0228 20.5 30.5 20.5C24.9771 20.5 20.5 24.9771 20.5 30.5C20.5 36.0228 24.9771 40.5 30.5 40.5Z" fill="#272343"/>
<path d="M45.5 13C44.1193 13 43 14.1193 43 15.5C43 16.8807 44.1193 18 45.5 18C46.8807 18 48 16.8807 48 15.5C48 14.1193 46.8807 13 45.5 13Z" fill="#272343"/>
<path fill-rule="evenodd" clip-rule="evenodd" d="M4.6349 11.1902C3 14.3988 3 18.5992 3 27V34C3 42.4007 3 46.6012 4.6349 49.8097C6.073 52.6322 8.3677 54.927 11.1902 56.365C14.3988 58 18.5992 58 27 58H34C42.4007 58 46.6012 58 49.8097 56.365C52.6322 54.927 54.927 52.6322 56.365 49.8097C58 46.6012 58 42.4007 58 34V27C58 18.5992 58 14.3988 56.365 11.1902C54.927 8.3677 52.6322 6.073 49.8097 4.6349C46.6012 3 42.4007 3 34 3H27C18.5992 3 14.3988 3 11.1902 4.6349C8.3677 6.073 6.073 8.3677 4.6349 11.1902ZM34 8H27C22.7171 8 19.8056 8.0039 17.5552 8.18775C15.3631 8.36685 14.2421 8.69148 13.4601 9.08993C11.5785 10.0487 10.0487 11.5785 9.08993 13.4601C8.69148 14.2421 8.36685 15.3631 8.18775 17.5552C8.0039 19.8056 8 22.7171 8 27V34C8 38.283 8.0039 41.1943 8.18775 43.4448C8.36685 45.637 8.69148 46.758 9.08993 47.54C10.0487 49.4215 11.5785 50.9512 13.4601 51.91C14.2421 52.3085 15.3631 52.6333 17.5552 52.8123C19.8056 52.996 22.7171 53 27 53H34C38.283 53 41.1943 52.996 43.4448 52.8123C45.637 52.6333 46.758 52.3085 47.54 51.91C49.4215 50.9512 50.9512 49.4215 51.91 47.54C52.3085 46.758 52.6333 45.637 52.8123 43.4448C52.996 41.1943 53 38.283 53 34V27C53 22.7171 52.996 19.8056 52.8123 17.5552C52.6333 15.3631 52.3085 14.2421 51.91 13.4601C50.9512 11.5785 49.4215 10.0487 47.54 9.08993C46.758 8.69148 45.637 8.36685 43.4448 8.18775C41.1943 8.0039 38.283 8 34 8Z" fill="#272343"/>
</svg>
