<svg width="133" height="25" viewBox="0 0 133 25" fill="none" xmlns="http://www.w3.org/2000/svg">
<path d="M30.6808 2.02785V21H26.8755V2.02785H30.6808ZM54.5813 2.02785V21H50.776V8.65995L45.6932 21H42.8121L37.7021 8.65995V21H33.8968V2.02785H38.2185L44.2527 16.1346L50.2868 2.02785H54.5813ZM71.0098 7.7358C70.5749 6.9385 69.9769 6.33147 69.2158 5.9147C68.4548 5.49793 67.5669 5.28954 66.5521 5.28954C65.4286 5.28954 64.432 5.54323 63.5622 6.0506C62.6924 6.55797 62.0129 7.28279 61.5237 8.22506C61.0344 9.16732 60.7898 10.2546 60.7898 11.4867C60.7898 12.7552 61.0344 13.8605 61.5237 14.8028C62.0311 15.7451 62.7287 16.4699 63.6166 16.9773C64.5045 17.4846 65.5374 17.7383 66.7152 17.7383C68.1648 17.7383 69.3517 17.3578 70.2759 16.5967C71.2 15.8175 71.8071 14.7394 72.097 13.3622H65.5736V10.4539H75.8479V13.7699C75.5942 15.0927 75.0506 16.3159 74.2171 17.4393C73.3835 18.5628 72.3054 19.4688 70.9826 20.1574C69.6779 20.8279 68.2101 21.1631 66.5793 21.1631C64.7491 21.1631 63.0911 20.7554 61.6052 19.94C60.1375 19.1064 58.9777 17.9558 58.1261 16.488C57.2925 15.0202 56.8758 13.3532 56.8758 11.4867C56.8758 9.62034 57.2925 7.95325 58.1261 6.48549C58.9777 4.99961 60.1375 3.84896 61.6052 3.03354C63.0911 2.2 64.7401 1.78323 66.5521 1.78323C68.6903 1.78323 70.5477 2.30872 72.1242 3.35971C73.7006 4.39258 74.7879 5.85127 75.3858 7.7358H71.0098ZM100.28 21H96.4743L87.858 7.98043V21H84.0527V2.00067H87.858L96.4743 15.0474V2.00067H100.28V21ZM115.211 2.02785V5.09927H107.302V9.96462H113.363V12.9817H107.302V21H103.496V2.02785H115.211ZM130.277 2.02785V5.09927H125.221V21H121.416V5.09927H116.36V2.02785H130.277Z" fill="#272343"/>
<path opacity="0.3" d="M-9.76506e-07 2.66014C-1.06922e-06 0.539069 2.82667 -0.726088 4.93695 0.450502L22.5861 10.2904C24.4713 11.3415 24.4713 13.6584 22.5859 14.7097L4.93695 24.5495C2.82667 25.7261 -2.35631e-08 24.4609 -1.16278e-07 22.3399L-5.46391e-07 12.5L-9.76506e-07 2.66014Z" fill="#6CCAF2"/>
<circle cx="6.94782" cy="12.2826" r="5.94671" transform="rotate(90 6.94782 12.2826)" fill="#139ED9"/>
<circle cx="12.2363" cy="12.2833" r="5.94671" transform="rotate(165 12.2363 12.2833)" fill="#E09C19"/>
<path d="M5.17522 8.85314C5.21303 8.73676 5.37768 8.73676 5.41549 8.85314L5.99018 10.6219C6.00709 10.6739 6.05559 10.7091 6.11032 10.7091H7.97006C8.09243 10.7091 8.14331 10.8657 8.04431 10.9377L6.53975 12.0308C6.49547 12.063 6.47695 12.12 6.49386 12.172L7.06855 13.9407C7.10637 14.0571 6.97316 14.1539 6.87417 14.082L5.3696 12.9888C5.32533 12.9567 5.26538 12.9567 5.2211 12.9888L3.71654 14.082C3.61754 14.1539 3.48434 14.0571 3.52215 13.9407L4.09685 12.172C4.11376 12.12 4.09523 12.063 4.05096 12.0308L2.54639 10.9377C2.4474 10.8657 2.49827 10.7091 2.62064 10.7091H4.48039C4.53511 10.7091 4.58361 10.6739 4.60052 10.6219L5.17522 8.85314Z" fill="#E09C19"/>
<path d="M7.30142 8.91476C7.34554 8.77899 7.53763 8.77899 7.58174 8.91476L8.25222 10.9783C8.27195 11.039 8.32853 11.0801 8.39238 11.0801H10.5621C10.7048 11.0801 10.7642 11.2628 10.6487 11.3467L8.89338 12.622C8.84172 12.6596 8.82011 12.7261 8.83984 12.7868L9.51032 14.8503C9.55443 14.9861 9.39903 15.099 9.28353 15.0151L7.52821 13.7397C7.47655 13.7022 7.40661 13.7022 7.35496 13.7397L5.59963 15.0151C5.48414 15.099 5.32874 14.9861 5.37285 14.8503L6.04333 12.7868C6.06306 12.7261 6.04144 12.6596 5.98979 12.622L4.23446 11.3467C4.11897 11.2628 4.17833 11.0801 4.32109 11.0801H6.49079C6.55464 11.0801 6.61122 11.039 6.63095 10.9783L7.30142 8.91476Z" fill="#139ED9"/>
</svg>
