<svg width="76" height="76" viewBox="0 0 76 76" fill="none" xmlns="http://www.w3.org/2000/svg">
<path d="M38 0C17 0 0 17 0 38C0 59 17 76 38 76C59 76 76 59 76 38C76 17 59 0 38 0ZM38 72C19.2 72 4 56.8 4 38C4 19.2 19.2 4 38 4C56.8 4 72 19.2 72 38C72 56.8 56.8 72 38 72ZM57.5 38C57.5 39.1 56.6 40 55.5 40H20.5C19.4 40 18.5 39.1 18.5 38C18.5 36.9 19.4 36 20.5 36H55.5C56.6 36 57.5 36.9 57.5 38ZM57.5 50C57.5 51.1 56.6 52 55.5 52H20.5C19.4 52 18.5 51.1 18.5 50C18.5 48.9 19.4 48 20.5 48H55.5C56.6 48 57.5 48.9 57.5 50ZM57.5 26C57.5 27.1 56.6 28 55.5 28H20.5C19.4 28 18.5 27.1 18.5 26C18.5 24.9 19.4 24 20.5 24H55.5C56.6 24 57.5 24.9 57.5 26Z" fill="black"/>
</svg>
